<svg width="535" height="614" viewBox="0 0 535 614" fill="none" xmlns="http://www.w3.org/2000/svg">
<path fill-rule="evenodd" clip-rule="evenodd" d="M251.798 383.675C258.706 395.533 264.083 411.209 266.983 431.518C267.341 434.027 267.704 436.578 268.071 439.167C278.417 512.026 292.89 613.948 337.717 613.948C358.989 613.948 410.85 573.871 454.982 520.908C492.709 475.632 517.648 429.196 535 384.085C515.327 421.069 473.55 479.347 445.698 508.138C410.883 544.127 364.464 582.437 344.736 582.437C329.741 582.437 324.416 536.632 318.576 486.395C313.568 443.318 308.181 396.983 295.995 373.472C293.161 368.004 289.642 362.864 285.568 358.098C319.379 329.453 354.494 290.376 386.458 239.966C468.441 110.669 442.216 25.063 386.458 4.45697C326.395 -17.7396 198.513 41.2481 95.2305 220.23C14.1708 360.701 -40.5464 609.562 38.367 613.948C84.7659 616.527 131.566 522.904 171.679 418.682C193.452 415.432 221.386 404.011 251.798 383.675ZM243.718 213.422C231.752 243.514 216.313 281.002 199.249 320.661C164.736 321.641 127.5 347 123.5 382C121.15 402.564 134.756 418.157 155.104 419.52C109.651 517.157 63.516 602.056 44.1695 596.526C14.8517 588.146 56.1803 407.055 136.953 258.706C212.845 119.322 337.717 1.67629 380.655 26.5222C421.41 50.1047 380.863 159.461 319.15 250.58C299.82 279.119 275.312 307.796 251.026 332.095C237.201 325.463 221.969 321.475 207.02 320.743C212.576 304.588 217.911 288.831 222.998 273.809C230.471 251.741 237.406 231.258 243.718 213.422ZM166.031 395.783C172.36 381.883 178.633 367.856 184.774 353.915C165.685 359.056 150.934 372.822 150.934 386.242C150.934 395.702 156.591 398.36 166.031 395.783ZM183.231 387.931C187.638 375.932 191.949 363.904 196.155 351.973C205.386 351.291 215.098 352.733 224.323 357.135C209.208 370.339 195.024 381.011 183.231 387.931Z" fill="#272727"/>
</svg>
